Coordinates
version=1
nRows=7
nColumns=42
inDegrees=yes

Units are S.I. units (second, meters, Newtons, ...)
If the header above contains a line with 'inDegrees', this indicates whether rotational values are in degrees (yes) or radians (no).

endheader
time	pelvis_tilt	pelvis_list	pelvis_rotation	pelvis_tx	pelvis_ty	pelvis_tz	hip_flexion_r	hip_adduction_r	hip_rotation_r	knee_angle_r	knee_adduction_r	knee_angle_r_beta	ankle_angle_r	subtalar_angle_r	mtp_angle_r	hip_flexion_l	hip_adduction_l	hip_rotation_l	knee_angle_l	knee_adduction_l	knee_angle_l_beta	ankle_angle_l	subtalar_angle_l	mtp_angle_l	lumbar_extension	lumbar_bending	lumbar_rotation	arm_flex_r	arm_add_r	arm_rot_r	elbow_flex_r	pro_sup_r	wrist_flex_r	wrist_dev_r	arm_flex_l	arm_add_l	arm_rot_l	elbow_flex_l	pro_sup_l	wrist_flex_l	wrist_dev_l
      0.98000000	     -0.66518208	      2.25342307	      0.84195625	     -0.95115957	      0.89048352	     -0.22335987	     -1.76491703	    -12.43982615	     -1.56227490	     53.84397538	     12.06517032	      0.93975465	     -5.75008707	     -3.31278245	     -7.61585286	     14.56919068	     -3.36727311	     -3.40476489	     18.32648188	     16.60282686	      0.31985745	      6.33504615	     -1.46921276	     -7.61585286	    -10.56499455	     -1.67517812	      3.07052020	     -3.51447216	    -13.68700706	     -4.17489488	     17.21369108	     90.00000001	      0.00000000	      0.00000000	    -11.26094435	     -9.79717597	      3.63366008	     20.34736253	     90.00000001	      0.00000000	      0.00000000
      0.99000000	     -0.57889604	      1.99162386	      0.90383080	     -0.94065080	      0.89236885	     -0.22423252	     -0.07328762	    -12.03737633	     -1.29834237	     55.49118835	     11.66406702	      0.96850394	     -4.17387904	     -4.21746757	     -7.61397111	     13.49530607	     -3.58221286	     -3.35345708	     17.92233722	     16.63053843	      0.31280379	      6.80421051	     -0.91395415	     -7.61397111	    -10.73580405	     -1.32310823	      2.88640884	     -3.51720160	    -13.73412531	     -4.19375479	     17.19290725	     90.00000001	      0.00000000	      0.00000000	    -10.84656354	    -10.01453660	      3.55477612	     20.58783971	     90.00000001	      0.00000000	      0.00000000
      1.00000000	     -0.70641614	      1.71142258	      0.86219549	     -0.92988257	      0.89391120	     -0.22490517	      1.85272999	    -11.61327971	     -1.19261662	     56.87811652	     11.16269956	      0.99271041	     -2.38340094	     -5.12105189	     -7.61147781	     12.46177773	     -3.88262237	     -3.39694818	     17.17499826	     16.74748100	      0.29976027	      7.37406244	     -0.24608460	     -7.61147781	    -10.56702866	     -0.95394381	      2.78246588	     -3.57336308	    -13.73998759	     -4.25800242	     17.08335333	     90.00000001	      0.00000000	      0.00000000	    -10.55600922	    -10.22340560	      3.43599213	     20.79412433	     90.00000001	      0.00000000	      0.00000000
      1.01000000	     -0.69585893	      1.39727557	      0.96751934	     -0.91917955	      0.89554910	     -0.22568886	      3.50492159	    -11.14358942	     -1.33567678	     57.87030254	     10.69660238	      1.01002732	     -0.52809955	     -5.70945837	     -7.60903461	     11.33319554	     -4.18641665	     -3.34819852	     16.49945193	     16.83613846	      0.28796976	      7.85816099	      0.36935273	     -7.60903461	    -10.57042016	     -0.52442605	      2.54460246	     -3.62362294	    -13.74098841	     -4.34850740	     17.00111915	     90.00000001	      0.00000000	      0.00000000	    -10.21527155	    -10.44144693	      3.33830075	     21.02019213	     90.00000001	      0.00000000	      0.00000000
      1.02000000	     -0.62245774	      1.06268654	      1.17936787	     -0.90836160	      0.89713511	     -0.22658732	      4.94369811	    -10.70395869	     -1.71251595	     58.44119021	     10.30162149	      1.01999119	      1.30364595	     -6.08840818	     -7.60704574	     10.15375119	     -4.50902267	     -3.26273524	     15.85209116	     16.90884411	      0.27667118	      8.29730957	      0.95782101	     -7.60704574	    -10.62378590	     -0.04222450	      2.20716682	     -3.68879744	    -13.78188553	     -4.44113859	     16.93712339	     90.00000001	      0.00000000	      0.00000000	     -9.90564621	    -10.67560651	      3.26973673	     21.24427444	     90.00000001	      0.00000000	      0.00000000
      1.03000000	     -0.53043248	      0.70251077	      1.50228144	     -0.89757335	      0.89865552	     -0.22757540	      6.26829118	    -10.25204767	     -2.21127866	     58.67902470	      9.99232596	      1.02414218	      3.07032116	     -6.32408592	     -7.60538710	      8.96939509	     -4.82402354	     -3.14092624	     15.20465124	     16.90306528	      0.26537123	      8.72704743	      1.55648544	     -7.60538710	    -10.68084227	      0.48635778	      1.72579760	     -3.73509476	    -13.76800975	     -4.53260016	     16.90976435	     90.00000001	      0.00000000	      0.00000000	     -9.59330740	    -10.88664693	      3.23072045	     21.47792657	     90.00000001	      0.00000000	      0.00000000
      1.04000000	     -0.40915686	      0.32087193	      1.97717585	     -0.88640268	      0.90002042	     -0.22865580	      7.36801682	     -9.79317989	     -2.94695904	     58.47203053	      9.69670773	      1.02052945	      4.87996365	     -6.36938066	     -7.60360853	      7.69419684	     -5.20261658	     -2.83028431	     14.39813372	     17.02127521	      0.25129484	      9.26971715	      2.30061265	     -7.60360853	    -10.70353153	      1.06101826	      1.14039341	     -3.86470149	    -13.74712051	     -4.68506543	     16.80360691	     90.00000001	      0.00000000	      0.00000000	     -9.34819290	    -11.11788770	      3.19750477	     21.70258750	     90.00000001	      0.00000000	      0.00000000
